<svg id="logo.w2m" xmlns="http://www.w3.org/2000/svg" width="110" height="49.871" viewBox="0 0 110 49.871">
  <g id="Grupo_638" data-name="Grupo 638" transform="translate(4.369)">
    <path id="Trazado_152" data-name="Trazado 152" d="M97.27,22.33c-.53,2.29-1,4.34-1.47,6.37A5.67,5.67,0,0,1,88.49,33a5.54,5.54,0,0,1-3.92-4.29c-.49-2-.92-4-1.52-6.06-.33,1.06-.64,2.12-1,3.17a26.68,26.68,0,0,1-1.61,4.76A5.75,5.75,0,0,1,69.82,27.9,12.88,12.88,0,0,1,70.93,23c2.17-6.65,4.4-13.27,6.58-19.91a3.84,3.84,0,0,1,3.29-3,3.92,3.92,0,0,1,3.28,1.3C86,3.13,87.84,4.88,89.7,6.66c.37.35.55.42,1,0,1.91-1.85,3.9-3.62,5.81-5.48A3.75,3.75,0,0,1,102.84,3c1.06,3.61,2.35,7.15,3.53,10.73,1.37,4.13,2.81,8.25,4,12.43A5.63,5.63,0,0,1,107,32.83a5.77,5.77,0,0,1-7.1-2.36,19.14,19.14,0,0,1-1.38-4.07C98.1,25.13,97.73,23.85,97.27,22.33Z" transform="translate(-4.926 -0.007)" fill="#fff"/>
    <path id="Trazado_154" data-name="Trazado 154" d="M46.33,33.21a5,5,0,0,1-3.15-8.76c3-2.51,6-5,8.91-7.48a22.45,22.45,0,0,0,3.49-3.4,2.31,2.31,0,0,0,.63-1.86,1.43,1.43,0,0,0-1.16-1.21,1.37,1.37,0,0,0-1.46.47,10.3,10.3,0,0,0-1.34,2.32,5,5,0,0,1-6.56,2.4,5.06,5.06,0,0,1-2.89-5.63A12.4,12.4,0,0,1,53.24.08,12.27,12.27,0,0,1,65.72,7.14a12.07,12.07,0,0,1-2.89,13.79c-.74.66-1.5,1.3-2.35,2.05a18.49,18.49,0,0,1,3.33.27,5.19,5.19,0,0,1,3.55,5.86,5,5,0,0,1-4.7,4.11c-.33-.45-.67-.37-1,0H47.32C47,32.78,46.66,32.84,46.33,33.21Z" transform="translate(-4.648 -0.007)" fill="#fff"/>
    <path id="Trazado_155" data-name="Trazado 155" d="M76.53,43.55a1.47,1.47,0,0,0-1.82-.47c-.67.26-.63.89-.64,1.46v4.72c0,.59-.13.83-.77.8-1.85-.06-1.52.24-1.54-1.55v-4c0-1.08-.37-1.49-1.17-1.55a1.16,1.16,0,0,0-1.41,1.27c0,1.66,0,3.32,0,5,0,.62-.16.87-.82.84-1.76-.07-1.5.27-1.52-1.5V44.42a3.57,3.57,0,0,1,5.48-3.17,1,1,0,0,0,1.15,0c2.08-1.07,5.66-.33,5.5,3.21-.08,1.62,0,3.26,0,4.88,0,.59-.19.79-.75.74a7.5,7.5,0,0,0-1.06,0c-.47,0-.67-.17-.52-.64.07-.08.19-.16.19-.24V43.96a.34.34,0,0,0-.3-.41Z" transform="translate(-4.753 -0.276)" fill="#fff"/>
    <path id="Trazado_158" data-name="Trazado 158" d="M93.84,46.18c-.29.85.33,1.18.89,1.47a3.39,3.39,0,0,0,3.14-.17c.58-.27.83-.2,1.1.39.56,1.29.59,1.28-.7,1.77a6.54,6.54,0,0,1-4.63,0c-2-.72-3.06-2.83-2.67-5.27a4.33,4.33,0,0,1,4.1-3.64c2.42-.08,3.9.83,4.5,2.79a6.4,6.4,0,0,1,.21,2.18c0,.23,0,.53-.39.45-.06,0-.12-.14-.19-.14H94C94,46,93.9,46.13,93.84,46.18ZM94,44.3c.94.48,1.93.13,2.9.19.06,0,.13-.14.2-.22,0-.86-.52-1.38-1.51-1.43s-1.84.58-1.87,1.21C93.72,44.23,93.9,44.23,94,44.3Z" transform="translate(-4.926 -0.276)" fill="#fff"/>
    <path id="Trazado_159" data-name="Trazado 159" d="M83.56,46.18c-.32.23-.16.45,0,.69a2.15,2.15,0,0,0,1.82,1.06,3.71,3.71,0,0,0,2.2-.46c.63-.35.85-.08,1.09.44.56,1.21.58,1.22-.68,1.7a6.34,6.34,0,0,1-5-.09,4.63,4.63,0,0,1-2.36-5.16,4.41,4.41,0,0,1,4.16-3.6c1.71-.06,3.23.32,4.08,1.94a3.89,3.89,0,0,1,.4,3.45,23.22,23.22,0,0,0-5.65,0S83.57,46.16,83.56,46.18Zm.32-1.88a3.39,3.39,0,0,0,2.77,0c.39-.44,0-.75-.24-1a2,2,0,0,0-2.86.38C83.2,44.15,83.46,44.24,83.88,44.3Z" transform="translate(-4.814 -0.276)" fill="#fff"/>
    <path id="Trazado_162" data-name="Trazado 162" d="M61.33,47.94h2.82c.46,0,.62.15.61.61,0,1.87.2,1.53-1.45,1.55s-3.21,0-4.81,0c-1,0-1.37-.56-.91-1.55a3.74,3.74,0,0,1,1-1.14c.86-.74,1.85-1.34,2.64-2.16s.8-1.29.26-1.83-1.19-.45-1.91.24c-.25.25-.36.78-.69.74a5.33,5.33,0,0,1-1.4-.6.42.42,0,0,1-.19-.62,3.75,3.75,0,0,1,3-2.31,3.36,3.36,0,0,1,3.33,1.61,2.9,2.9,0,0,1-.07,3.37,11,11,0,0,1-2.23,2.09Z" transform="translate(-4.686 -0.276)" fill="#fff"/>
    <path id="Trazado_163" data-name="Trazado 163" d="M108.36,41.1c0,1.82,0,1.86-1.78,1.8-.76,0-.89.23-.87.91.05,1.81,0,3.63,0,5.45,0,.53-.15.72-.69.7-2-.06-1.66.28-1.68-1.66V43.75c0-.69-.2-.93-.87-.83a3,3,0,0,1-.89,0c-.34,0-.93.25-1-.22s-.37-1.26.19-1.8c.23.34.59.21.89.21Z" transform="translate(-4.926 -0.276)" fill="#fff"/>
  </g>
  <g id="Grupo_637" data-name="Grupo 637" transform="translate(0 0.016)">
    <path id="Trazado_153" data-name="Trazado 153" d="M13.35,10.89c.47-2.05.93-3.91,1.33-5.79a6,6,0,0,1,2.49-4,5.73,5.73,0,0,1,8.92,3.82c.41,1.9.86,3.8,1.3,5.69h.2c.32-1,.65-2.05,1-3.09s.68-2.34,1-3.5A5.83,5.83,0,0,1,35.86.07,5.89,5.89,0,0,1,40.8,5.53a11.75,11.75,0,0,1-.89,4c-1.14,3.5-2.33,7-3.49,10.47S34.15,26.92,33,30.36c-1,3.07-4,3.84-6.31,1.65-2-1.8-3.9-3.61-5.81-5.46-.45-.44-.68-.21-1,.08C18,28.44,16,30.24,14.07,32.08A3.58,3.58,0,0,1,8,30.8C7,27.88,6,24.9,5,22s-2-6-3-9C1.43,11,.73,9,.18,7A5.73,5.73,0,0,1,4.1.27a5.67,5.67,0,0,1,7,3.54c.7,2.16,1.33,4.35,2,6.52C13.17,10.46,13.22,10.58,13.35,10.89Z" transform="translate(-0.041 -0.023)" fill="#bfcb3b"/>
    <path id="Trazado_156" data-name="Trazado 156" d="M15.05,48.84a3.73,3.73,0,0,1-4.55.89,1.43,1.43,0,0,0-1.55,0,3.73,3.73,0,0,1-5-1.61A2.67,2.67,0,0,1,3.75,47c0-1.85,0-3.69,0-5.54,0-.49.12-.67.63-.67,2,0,1.61-.15,1.64,1.55v4.07c0,.94.43,1.46,1.22,1.5a1.283,1.283,0,0,0,1.39-1.43c0-1.57.06-3.15,0-4.72,0-.81.24-1.08,1-1a2.83,2.83,0,0,0,.65,0c.49,0,.67.17.67.67v4.88c0,1.06.4,1.56,1.22,1.57s1.36-.51,1.37-1.56v-4.8c0-.63.2-.84.79-.76a3.75,3.75,0,0,0,.82,0c.59,0,.81.2.6.78-.33.2-.19.54-.21.81-.08,2.07.3,4.17-.59,6.16C14.89,48.63,15,48.75,15.05,48.84Z" transform="translate(-0.041 -0.292)" fill="#bfcb3b"/>
    <path id="Trazado_157" data-name="Trazado 157" d="M28.4,45.37V41.62c0-.57.14-.83.78-.81h4.56a3,3,0,0,1,2.67,4.51,2.64,2.64,0,0,1-1.21,1.15c-.71.38-.72.74-.07,1.22a1.28,1.28,0,0,0,1.38,0c1-.45.91.56,1.23,1s.08.76-.35,1a3.46,3.46,0,0,1-4.73-1.49c-.29-.58-.43-1.39-1.45-1.23-.41.06-.48.17-.47.52v1.87c0,.45-.14.59-.55.58-2.1,0-1.75.3-1.79-1.65C28.39,47.32,28.4,46.34,28.4,45.37ZM32.22,45h0a5.763,5.763,0,0,0,1.37-.11.94.94,0,0,0,.81-1.13,1,1,0,0,0-.94-.93,14.58,14.58,0,0,0-2.19-.08c-.27,0-.51,0-.58.42-.26,1.49,0,1.79,1.44,1.8Z" transform="translate(-0.041 -0.292)" fill="#bfcb3b"/>
    <path id="Trazado_160" data-name="Trazado 160" d="M22.12,40.77A4.6,4.6,0,0,1,27,45.47c0,2.7-2.06,4.6-4.93,4.62a4.68,4.68,0,0,1-4.87-4.76,4.59,4.59,0,0,1,4.92-4.56Zm-.06,7.15a2.41,2.41,0,0,0,2.52-2.57,2.441,2.441,0,0,0-4.88.1,2.34,2.34,0,0,0,2.36,2.47Z" transform="translate(-0.041 -0.292)" fill="#bfcb3b"/>
    <path id="Trazado_161" data-name="Trazado 161" d="M46.68,45.38V41.47c0-.3,0-.65.42-.64A22.05,22.05,0,0,1,52,41a4.27,4.27,0,0,1,3.26,4.91,4.18,4.18,0,0,1-4.4,4h-3.5c-.51,0-.67-.17-.66-.66V45.34Zm2.29,0v1c0,1.79,0,1.79,1.82,1.59a1.94,1.94,0,0,0,1.87-1.43c.68-2.77-.61-3.81-3.16-3.7-.42,0-.55.21-.53.62.03.62.03,1.26.03,1.91Z" transform="translate(-0.041 -0.292)" fill="#bfcb3b"/>
    <path id="Trazado_164" data-name="Trazado 164" d="M39.06,45.43V41.61c0-.56.19-.77.74-.8,1.65-.08,1.65-.1,1.65,1.5v4.87c0,.56.17.77.74.74h2.36c.47,0,.71.14.66.65a7.3,7.3,0,0,0,0,.81c0,.41-.16.58-.58.59h-5c-.4,0-.49-.21-.49-.57v-4Z" transform="translate(-0.041 -0.292)" fill="#bfcb3b"/>
    <path id="Trazado_187" data-name="Trazado 187" d="M15.05,48.84c-.05-.09-.16-.21-.14-.27.89-2,.51-4.09.59-6.16,0-.27-.12-.61.21-.81v5.53c-.12,0-.15.1,0,.17a1.74,1.74,0,0,1-.46,1.29L15,48.8Z" transform="translate(-0.041 -0.284)" fill="#bfcb3b"/>
  </g>
</svg>
